<svg id="Capa_1" enable-background="new 0 0 512 512" viewBox="0 0 512 512" xmlns="http://www.w3.org/2000/svg"><circle cx="83" cy="179.167" r="15"/><path d="m512 186.667c0-8.284-6.716-15-15-15h-299.208l294.49-51.926c3.918-.691 7.401-2.91 9.683-6.168 2.282-3.259 3.176-7.291 2.485-11.208l-15.629-88.633c-1.438-8.158-9.216-13.605-17.377-12.167l-369.217 65.102h-87.227c-8.284 0-15 6.716-15 15v394c0 19.299 15.701 35 35 35h442c19.299 0 35-15.701 35-35zm-30 289c0 2.757-2.243 5-5 5h-442c-2.757 0-5-2.243-5-5v-184h75 377zm-9.699-382.866-38.198 6.735 31.463-44.934zm-147.518-34.914-48.67 69.507-74.425 13.123 48.669-69.507zm116.208-20.491-48.669 69.507-74.427 13.124 48.67-69.507zm-274.767 101.467-34.854-46.872 77.206-13.614zm116.563 62.804 60 60h-75.574l-60-60zm-58 60h-91.118l37.33-53.788zm160.426 0-60-60h75.574l60 60zm96.787-21.213-38.787-38.787h38.787zm-384.539-143.787 59.071 79.439-59.38 85.561h-67.152v-60-105z"/><path d="m86 331.167c-8.284 0-15 6.716-15 15s6.716 15 15 15h71.735v50h-71.735c-8.284 0-15 6.716-15 15s6.716 15 15 15h340c8.284 0 15-6.716 15-15s-6.716-15-15-15h-71.735v-50h71.735c8.284 0 15-6.716 15-15s-6.716-15-15-15zm238.265 80h-136.53v-50h136.529v50z"/></svg>